# xmcd
#
# Track frame offsets:
#	150
#	11246
#	21167
#	36899
#	58888
#	81101
#	91505
#	101698
#	126254
#	137655
#	154473
#	171339
#
# Disc length: 2512
#
# Revision: 2
# Processed by: cddbd v1.5.1PL0 Copyright (c) Steve Scherf et al.
# Submitted via: CDex 1.40Beta5
# Normalized: r0:TDELIM( - );r1:TRMNUM
#
DISCID=9e09ce0c
DTITLE=Eric Clapton - The Blues Roots Of
DYEAR=2002
DGENRE=Blues
TTITLE0=For Your Love
TTITLE1=I Wish You Would
TTITLE2=Louise
TTITLE3=Five Long Years
TTITLE4=First Time I Met The Blues
TTITLE5=Got To Hury
TTITLE6=A Certain Girl
TTITLE7=( She's So ) Respectable
TTITLE8=Pounds And Stomps
TTITLE9=Stormy Monday
TTITLE10=Big Boss Man
TTITLE11=Early In The Morning
EXTD=YEAR: 2002 ID3G:   0
EXTT0=
EXTT1=
EXTT2=
EXTT3=
EXTT4=
EXTT5=
EXTT6=
EXTT7=
EXTT8=
EXTT9=
EXTT10=
EXTT11=
PLAYORDER=
